<?xml version="1.0" encoding="UTF-8"?>
<!DOCTYPE svg PUBLIC "-//W3C//DTD SVG 1.1//EN" "http://www.w3.org/Graphics/SVG/1.1/DTD/svg11.dtd">
<svg xmlns="http://www.w3.org/2000/svg" version="1.1" width="1920px" height="1080px" style="shape-rendering:geometricPrecision; text-rendering:geometricPrecision; image-rendering:optimizeQuality; fill-rule:evenodd; clip-rule:evenodd" xmlns:xlink="http://www.w3.org/1999/xlink">
<g><path style="opacity:1" fill="#101010" d="M -0.5,-0.5 C 639.5,-0.5 1279.5,-0.5 1919.5,-0.5C 1919.5,359.5 1919.5,719.5 1919.5,1079.5C 1279.5,1079.5 639.5,1079.5 -0.5,1079.5C -0.5,719.5 -0.5,359.5 -0.5,-0.5 Z M 886.5,399.5 C 918.573,399.174 950.573,399.508 982.5,400.5C 1074.79,492.454 1167.46,584.787 1260.5,677.5C 1244.68,678.833 1228.51,679.499 1212,679.5C 1195.43,679.493 1178.93,679.16 1162.5,678.5C 1086.91,603.079 1011.08,527.079 935,450.5C 861.473,524.027 787.973,597.527 714.5,671C 693.045,684.031 673.545,681.531 656,663.5C 646.365,649.004 645.031,633.67 652,617.5C 667.536,594.818 687.703,589.652 712.5,602C 723.245,610.33 729.745,621.164 732,634.5C 796.36,570.061 860.86,505.728 925.5,441.5C 912.847,428.347 900.014,415.347 887,402.5C 886.517,401.552 886.351,400.552 886.5,399.5 Z"/></g>
<g><path style="opacity:1" fill="#070707" d="M 981.5,398.5 C 949.833,398.5 918.167,398.5 886.5,398.5C 918.039,397.826 949.706,397.16 981.5,396.5C 982.463,396.97 982.463,397.637 981.5,398.5 Z"/></g>
<g><path style="opacity:1" fill="#171717" d="M 886.5,399.5 C 886.5,399.167 886.5,398.833 886.5,398.5C 918.167,398.5 949.833,398.5 981.5,398.5C 982.338,398.842 982.672,399.508 982.5,400.5C 950.573,399.508 918.573,399.174 886.5,399.5 Z"/></g>
<g><path style="opacity:1" fill="#171717" d="M 1260.5,677.5 C 1261.4,678.209 1261.74,679.209 1261.5,680.5C 1228.17,680.667 1194.83,680.5 1161.5,680C 1162.06,679.617 1162.39,679.117 1162.5,678.5C 1178.93,679.16 1195.43,679.493 1212,679.5C 1228.51,679.499 1244.68,678.833 1260.5,677.5 Z"/></g>
</svg>
