<?xml version="1.0" encoding="UTF-8" standalone="no"?>
<svg
   width="8000"
   height="4500"
   viewBox="0 0 8000 4500"
   version="1.1"
   id="svg3"
   sodipodi:docname="logo.svg"
   inkscape:version="1.2.2 (b0a8486541, 2022-12-01)"
   xmlns:inkscape="http://www.inkscape.org/namespaces/inkscape"
   xmlns:sodipodi="http://sodipodi.sourceforge.net/DTD/sodipodi-0.dtd"
   xmlns="http://www.w3.org/2000/svg"
   xmlns:svg="http://www.w3.org/2000/svg">
  <defs
     id="defs7" />
  <sodipodi:namedview
     id="namedview5"
     pagecolor="#ffffff"
     bordercolor="#000000"
     borderopacity="0.25"
     inkscape:showpageshadow="2"
     inkscape:pageopacity="0.0"
     inkscape:pagecheckerboard="0"
     inkscape:deskcolor="#d1d1d1"
     showgrid="false"
     inkscape:zoom="2"
     inkscape:cx="3924.75"
     inkscape:cy="2381.75"
     inkscape:window-width="1920"
     inkscape:window-height="1131"
     inkscape:window-x="0"
     inkscape:window-y="32"
     inkscape:window-maximized="1"
     inkscape:current-layer="svg3"
     showguides="true" />
  <path
     id="rect896"
     style="fill:#101010;fill-opacity:1;stroke-width:1;paint-order:stroke fill markers"
     d="m -1017.6709,-911.58153 v 6.44012 2529.02361 1270.5007 2529.0234 H 2301.8488 5731.01 9050.5298 V 2894.3829 -911.58153 H 5731.01 v 6.44012 H 2301.8488 v -6.44012 z M 4070.7673,2161.9311 h 34.6242 l 102.5672,102.0437 h -35.3419 l -84.0458,-84.208 -78.8397,78.7045 a 15.086525,15.251534 0 0 1 -2.0426,2.0377 l -0.025,0.025 c 0,3e-4 2e-4,0 -0.013,0 a 15.086525,15.251534 0 0 1 -9.5078,3.4412 15.086525,15.251534 0 0 1 -15.085,-15.2496 15.086525,15.251534 0 0 1 15.085,-15.2524 15.086525,15.251534 0 0 1 15.0876,15.2203 l 72.3972,-71.8686 z" />
</svg>
